<svg xmlns="http://www.w3.org/2000/svg" viewBox="0 0 129.65 129.65"><defs><style>.cls-1{fill:#4b267f;}.cls-2{fill:#e83d61;}</style></defs><g id="Layer_2" data-name="Layer 2"><g id="Layer_1-2" data-name="Layer 1"><g id="Layer_2-2" data-name="Layer 2"><g id="Layer_1-2-2" data-name="Layer 1-2"><path class="cls-1" d="M92.9,0H36.79A14.6,14.6,0,0,0,22.22,14.56V115.08a14.6,14.6,0,0,0,14.57,14.57H92.9a14.59,14.59,0,0,0,14.58-14.57V14.56A14.59,14.59,0,0,0,92.9,0ZM27.23,21.78h75.2v86.1H27.23ZM36.79,5H92.9a9.57,9.57,0,0,1,9.57,9.56v2.21H27.23V14.56A9.56,9.56,0,0,1,36.79,5ZM92.9,124.65H36.79a9.57,9.57,0,0,1-9.56-9.57v-2.2h75.2v2.2A9.58,9.58,0,0,1,92.9,124.65Zm-24.77-5.89a2.5,2.5,0,0,1-2.5,2.5H64a2.5,2.5,0,0,1,0-5h1.63a2.51,2.51,0,0,1,2.51,2.49Zm7.44-56-15.48-9a2.5,2.5,0,0,0-3.42.9,2.44,2.44,0,0,0-.34,1.27v17.8a2.5,2.5,0,0,0,2.5,2.5h0a2.48,2.48,0,0,0,1.24-.33l15.48-8.83a2.51,2.51,0,0,0,.91-3.43,2.61,2.61,0,0,0-.91-.9Zm-14.2,6.68V60.27l7.93,4.62ZM5,34.44V95.21h6.47a2.51,2.51,0,0,1,.32,5,1.71,1.71,0,0,1-.32,0h-9A2.52,2.52,0,0,1,0,97.71V31.94a2.5,2.5,0,0,1,2.5-2.5h9a2.5,2.5,0,1,1,0,5H5Zm124.64-2.5V97.71a2.51,2.51,0,0,1-2.49,2.51h-9a2.51,2.51,0,0,1,0-5h6.47V34.44h-6.47a2.5,2.5,0,0,1,0-5h9A2.5,2.5,0,0,1,129.65,31.94Z"/><path class="cls-2" d="M49.89,44.59a2.5,2.5,0,0,1-2.5,2.5H40.92v6.19a2.51,2.51,0,0,1-5,0V44.59a2.5,2.5,0,0,1,2.5-2.5h9a2.5,2.5,0,0,1,2.5,2.5Z"/><path class="cls-2" d="M93.75,44.59v8.68a2.5,2.5,0,1,1-5,0V47.08H82.27a2.5,2.5,0,0,1,0-5h9a2.5,2.5,0,0,1,2.5,2.5Z"/><path class="cls-2" d="M93.75,76.39v8.67a2.49,2.49,0,0,1-2.49,2.5h-9a2.51,2.51,0,0,1,0-5h6.5V76.39a2.5,2.5,0,1,1,5,0h0Z"/><path class="cls-2" d="M49.89,85.06a2.49,2.49,0,0,1-2.49,2.5h-9a2.49,2.49,0,0,1-2.5-2.49h0V76.39a2.51,2.51,0,0,1,5-.33v6.52h6.47A2.5,2.5,0,0,1,49.89,85.06Z"/></g></g></g></g></svg>