<svg xmlns="http://www.w3.org/2000/svg" viewBox="0 0 101.08 125.61"><defs><style>.cls-1{fill:#4b267f;}.cls-2{fill:#e83d61;}</style></defs><g id="Layer_2" data-name="Layer 2"><g id="Layer_1-2" data-name="Layer 1"><path class="cls-1" d="M20.31,89.92l28.94,16.82.08,0a3.25,3.25,0,0,0,.43.18l.14,0A2.36,2.36,0,0,0,51,107l.14,0a1.94,1.94,0,0,0,.42-.17l.08,0L80.77,89.92a2.41,2.41,0,0,0,1.2-2.1V54.4a2.63,2.63,0,0,0-.07-.49s0-.08,0-.11a3.21,3.21,0,0,0-.22-.54h0a2.51,2.51,0,0,0-.35-.44l-.1-.1a2.4,2.4,0,0,0-.37-.28l-.06-.05L51.68,35.54a2.4,2.4,0,0,0-2.43,0L20.31,52.37l-.09.07a1.85,1.85,0,0,0-.32.25l-.13.11a2.53,2.53,0,0,0-.34.45v0a2.75,2.75,0,0,0-.21.51s0,.11,0,.16a2,2,0,0,0-.05.42s0,.07,0,.1V87.82A2.41,2.41,0,0,0,20.31,89.92ZM24,58.66l24.1,13.88v27.9L24,86.43Zm28.94,41.79V72.55l24.24-13.9V86.43Zm-2.41-60,24.22,14L50.47,68.35,26.37,54.46Zm50.6,64.21c0,11.95-21.75,21-50.61,21S0,116.6,0,104.65C0,100.73,2.36,95,13.58,90.16a2.43,2.43,0,0,1,1.93,4.45c-6.78,2.94-10.66,6.6-10.66,10,0,7.62,18.73,16.11,45.62,16.11s45.77-8.49,45.77-16.11c0-3.44-3.89-7.1-10.66-10a2.43,2.43,0,1,1,1.93-4.45C98.73,95,101.08,100.73,101.08,104.65Zm-72.85-88V13.26a2.42,2.42,0,0,1,4.84,0v3.42a2.42,2.42,0,1,1-4.84,0Zm0,13.26V23.52a2.42,2.42,0,0,1,4.84,0v6.42a2.42,2.42,0,1,1-4.84,0Zm39.78,0V23.52a2.42,2.42,0,1,1,4.84,0v6.42a2.42,2.42,0,1,1-4.84,0Zm0-13.26V13.26a2.42,2.42,0,1,1,4.84,0v3.42a2.42,2.42,0,1,1-4.84,0Z"/><path class="cls-2" d="M8.27,50.33v-4a2.43,2.43,0,1,1,4.85,0v4a2.43,2.43,0,0,1-4.85,0Z"/><path class="cls-2" d="M48.05,19.11V2.42a2.42,2.42,0,0,1,4.84,0V19.11a2.42,2.42,0,0,1-4.84,0Z"/><path class="cls-2" d="M88,50.33v-4a2.42,2.42,0,1,1,4.84,0v4a2.42,2.42,0,0,1-4.84,0Z"/><path class="cls-2" d="M8.27,38.35V18.68a2.43,2.43,0,1,1,4.85,0V38.35a2.43,2.43,0,1,1-4.85,0Z"/><path class="cls-2" d="M88,38.35V18.68a2.42,2.42,0,1,1,4.84,0V38.35a2.42,2.42,0,1,1-4.84,0Z"/></g></g></svg>