<svg xmlns="http://www.w3.org/2000/svg" viewBox="0 0 125.64 125.61"><defs><style>.cls-1{fill:#4b267f;}.cls-2{fill:#e83d61;}</style></defs><g id="Layer_2" data-name="Layer 2"><g id="Layer_1-2" data-name="Layer 1"><path class="cls-1" d="M111.93,96.33a2.43,2.43,0,0,1-4.5,1.81l-.29-.72a2.42,2.42,0,0,1,4.5-1.8Zm13.71,10.46v11.4a7.16,7.16,0,0,1-1,3.67,7.66,7.66,0,0,1-6.5,3.75H7.59a7.61,7.61,0,0,1-6.46-3.69A7.29,7.29,0,0,1,0,118.19V107.44a7,7,0,0,1,1.09-4.52L12.19,83.35a7.25,7.25,0,0,1,6.52-3.94H33.12a2.43,2.43,0,0,1,0,4.85h-.77l-9.67,25.09H103L93.33,84.26h-.9a2.43,2.43,0,0,1,0-4.85H107a7.29,7.29,0,0,1,6.58,4L124.62,103a7.72,7.72,0,0,1,.91,3.07A2.62,2.62,0,0,1,125.64,106.79Zm-17.44,2.56h9.89a2.48,2.48,0,0,0,2.32-1.36,2.72,2.72,0,0,0,0-2.61L109.27,85.74a2.5,2.5,0,0,0-2.3-1.48H98.52ZM5.29,105.42a2.45,2.45,0,0,0-.42,1.23s0,.09,0,.14v.09a2.12,2.12,0,0,0,.33,1,2.54,2.54,0,0,0,2.37,1.44h9.89l9.68-25.09H18.71a2.46,2.46,0,0,0-2.25,1.37ZM120.8,118.19v-4.48a7.58,7.58,0,0,1-2.71.49H7.59a7.7,7.7,0,0,1-2.7-.48v4.47a2.43,2.43,0,0,0,.36,1.18,2.84,2.84,0,0,0,2.34,1.39h110.5a2.86,2.86,0,0,0,2.37-1.44A2.39,2.39,0,0,0,120.8,118.19ZM52.36,10.41a10.41,10.41,0,0,1,20.82,0c0,5.81-4.64,12.83-10.41,12.83S52.36,16.22,52.36,10.41Zm4.85,0c0,3.34,2.8,8,5.56,8s5.57-4.64,5.57-8a5.57,5.57,0,0,0-11.13,0ZM41.52,58.17V39.78A14.28,14.28,0,0,1,55.79,25.52H69.9A14.28,14.28,0,0,1,84.16,39.78V58.17A6.85,6.85,0,0,1,77.31,65a6.68,6.68,0,0,1-2-.3V87.25A6.21,6.21,0,0,1,69,93.39H66.62a6.36,6.36,0,0,1-3.85-1.3,6,6,0,0,1-3.71,1.3H56.5a6.21,6.21,0,0,1-6.13-6.14V64.71a6.63,6.63,0,0,1-2,.3A6.86,6.86,0,0,1,41.52,58.17Zm4.85-18.39V58.17a2,2,0,0,0,4,0V40.35a2.42,2.42,0,0,1,4.84,0v46.9a1.36,1.36,0,0,0,1.29,1.29h2.56a1.36,1.36,0,0,0,1.29-1.29V63.59a2.42,2.42,0,1,1,4.84,0V87.25a1.4,1.4,0,0,0,1.43,1.29H69a1.4,1.4,0,0,0,1.43-1.29V40.35a2.42,2.42,0,1,1,4.84,0V58.17a2,2,0,1,0,4,0V39.78a9.42,9.42,0,0,0-9.41-9.41H55.79A9.42,9.42,0,0,0,46.37,39.78Zm48.8,4.92a2.42,2.42,0,0,0-3,1.74L80.81,90.35A2.43,2.43,0,0,0,82,93.07c-.42,2.83-7.8,6.73-19.21,6.73S44.12,95.9,43.7,93.07a2.43,2.43,0,0,0,1.17-2.72L33.46,46.44a2.42,2.42,0,1,0-4.69,1.22l10.86,41.8a7.26,7.26,0,0,0-.81,3.35c0,6.75,10.3,11.84,24,11.84s24.09-5.09,24.09-11.84a7.29,7.29,0,0,0-.81-3.35l10.86-41.8A2.42,2.42,0,0,0,95.17,44.7Z"/><path class="cls-2" d="M34.75,27.36a2.41,2.41,0,0,0,2.35,1.87,2.1,2.1,0,0,0,.56-.07,2.43,2.43,0,0,0,1.81-2.91L37.76,19A2.42,2.42,0,1,0,33,20.09Z"/><path class="cls-2" d="M88,29.16a2.15,2.15,0,0,0,.56.07,2.41,2.41,0,0,0,2.35-1.87l1.71-7.27a2.43,2.43,0,0,0-1.8-2.92A2.39,2.39,0,0,0,87.93,19l-1.71,7.27A2.41,2.41,0,0,0,88,29.16Z"/><path class="cls-2" d="M28.36,37.31a2.44,2.44,0,0,0,2.33,1.76,2.27,2.27,0,0,0,.67-.1A2.42,2.42,0,0,0,33,36l-.57-2a2.42,2.42,0,1,0-4.66,1.33Z"/><path class="cls-2" d="M94.19,39a2.16,2.16,0,0,0,.66.1,2.43,2.43,0,0,0,2.33-1.76l.57-2A2.42,2.42,0,1,0,93.09,34l-.57,2A2.42,2.42,0,0,0,94.19,39Z"/></g></g></svg>