<svg xmlns="http://www.w3.org/2000/svg" viewBox="0 0 134.67 102.84"><defs><style>.cls-1{fill:#4b267f;}.cls-2,.cls-3{fill:none;stroke-linecap:round;stroke-linejoin:round;stroke-width:5px;}.cls-2{stroke:#e73c61;}.cls-3{stroke:#4b267f;}</style></defs><g id="Layer_2" data-name="Layer 2"><g id="Layer_1-2" data-name="Layer 1"><path class="cls-1" d="M67.33,81.21a4.3,4.3,0,0,1-3.12-1.33L43.67,58.67a16.2,16.2,0,0,1-4.49-12,15.91,15.91,0,0,1,5.61-11.51,14.31,14.31,0,0,1,9.38-3.5,17,17,0,0,1,11.8,5l1.37,1.41,1.37-1.42a16.29,16.29,0,0,1,11.61-5,14.53,14.53,0,0,1,9.57,3.5A15.93,15.93,0,0,1,95.5,46.66a16.2,16.2,0,0,1-4.51,12L70.45,79.88A4.27,4.27,0,0,1,67.33,81.21ZM54.14,37a8.83,8.83,0,0,0-5.85,2.24,10.27,10.27,0,0,0-3.72,7.52,11.11,11.11,0,0,0,3,8.14L67.38,75.39,87.13,54.92a11.14,11.14,0,0,0,3-8.15,10.32,10.32,0,0,0-3.73-7.51A8.8,8.8,0,0,0,80.55,37a11.94,11.94,0,0,0-8,3.38l-5.25,5.42-5.25-5.42A11.82,11.82,0,0,0,54.14,37Z"/><path class="cls-2" d="M93.73,8.1A64.86,64.86,0,0,0,2.5,67.34"/><path class="cls-3" d="M132.17,67.34a64.75,64.75,0,0,0-28.52-53.72"/><polyline class="cls-3" points="132.17 81.21 132.17 100.34 2.5 100.34 2.5 81.21"/></g></g></svg>