<svg xmlns="http://www.w3.org/2000/svg" viewBox="0 0 125.6 125.6"><defs><style>.cls-1{fill:#4b267f;}.cls-2{fill:#e83d61;}</style></defs><g id="Layer_2" data-name="Layer 2"><g id="Layer_1-2" data-name="Layer 1"><path class="cls-1" d="M90,0H35.64A14.13,14.13,0,0,0,21.53,14.11v97.38A14.13,14.13,0,0,0,35.64,125.6H90a14.13,14.13,0,0,0,14.12-14.11V14.11A14.13,14.13,0,0,0,90,0ZM26.38,21.1H99.23v83.41H26.38ZM35.64,4.84H90a9.28,9.28,0,0,1,9.27,9.27v2.14H26.38V14.11A9.27,9.27,0,0,1,35.64,4.84ZM90,120.76H35.64a9.27,9.27,0,0,1-9.26-9.27v-2.14H99.23v2.14A9.28,9.28,0,0,1,90,120.76ZM66,115.05a2.42,2.42,0,0,1-2.42,2.42H62a2.42,2.42,0,1,1,0-4.84h1.57A2.42,2.42,0,0,1,66,115.05Zm7.21-54.27-15-8.7a2.42,2.42,0,0,0-3.64,2.1V71.43A2.42,2.42,0,0,0,57,73.85a2.45,2.45,0,0,0,1.2-.32l15-8.55a2.43,2.43,0,0,0,0-4.2ZM59.45,67.25V58.39l7.69,4.47ZM4.85,33.36V92.24h6.27a2.43,2.43,0,1,1,0,4.85H2.42A2.43,2.43,0,0,1,0,94.66V30.94a2.42,2.42,0,0,1,2.42-2.42h8.7a2.42,2.42,0,1,1,0,4.84ZM125.6,30.94V94.66a2.42,2.42,0,0,1-2.42,2.43h-8.69a2.43,2.43,0,0,1,0-4.85h6.27V33.36h-6.27a2.42,2.42,0,0,1,0-4.84h8.69A2.42,2.42,0,0,1,125.6,30.94Z"/><path class="cls-2" d="M48.33,43.2a2.42,2.42,0,0,1-2.42,2.42H39.64v6a2.43,2.43,0,0,1-4.85,0V43.2a2.42,2.42,0,0,1,2.42-2.42h8.7A2.42,2.42,0,0,1,48.33,43.2Z"/><path class="cls-2" d="M90.82,43.2v8.41a2.42,2.42,0,0,1-4.84,0v-6H79.7a2.42,2.42,0,0,1,0-4.84h8.7A2.42,2.42,0,0,1,90.82,43.2Z"/><path class="cls-2" d="M90.82,74v8.4a2.42,2.42,0,0,1-2.42,2.43H79.7a2.43,2.43,0,0,1,0-4.85H86V74a2.42,2.42,0,1,1,4.84,0Z"/><path class="cls-2" d="M48.33,82.4a2.42,2.42,0,0,1-2.42,2.43h-8.7a2.42,2.42,0,0,1-2.42-2.43V74a2.43,2.43,0,1,1,4.85,0v6h6.27A2.42,2.42,0,0,1,48.33,82.4Z"/></g></g></svg>