<svg xmlns="http://www.w3.org/2000/svg" viewBox="0 0 125.61 101.37"><defs><style>.cls-1{fill:#4b267f;}.cls-2{fill:#e83d61;}</style></defs><g id="Layer_2" data-name="Layer 2"><g id="Layer_1-2" data-name="Layer 1"><path class="cls-1" d="M123.18,0H2.42A2.43,2.43,0,0,0,0,2.42V98.94a2.43,2.43,0,0,0,2.42,2.43H123.18a2.43,2.43,0,0,0,2.43-2.43V2.42A2.43,2.43,0,0,0,123.18,0Zm-2.42,4.85V14H4.85V4.85ZM4.85,96.52V18.82H120.76v77.7ZM91.25,9.41A2.42,2.42,0,0,1,93.67,7h1.14a2.42,2.42,0,1,1,0,4.84H93.67A2.42,2.42,0,0,1,91.25,9.41Zm9.12,0A2.42,2.42,0,0,1,102.8,7h1.14a2.42,2.42,0,1,1,0,4.84H102.8A2.42,2.42,0,0,1,100.37,9.41Zm9.13,0A2.42,2.42,0,0,1,111.92,7h1.14a2.42,2.42,0,1,1,0,4.84h-1.14A2.42,2.42,0,0,1,109.5,9.41ZM85.4,45.91s0-.07,0-.1a2.12,2.12,0,0,0-.06-.43l0-.16a2.41,2.41,0,0,0-.21-.5v0h0a3,3,0,0,0-.34-.44l-.14-.13-.31-.24-.1-.07L63.81,32a2.43,2.43,0,0,0-2.43,0L40.85,43.81l-.1.07a1.76,1.76,0,0,0-.3.24l-.15.13a2.59,2.59,0,0,0-.32.42.05.05,0,0,0,0,0,2.07,2.07,0,0,0-.22.51l0,.16a1.59,1.59,0,0,0-.06.43s0,.06,0,.1V69.43a2.41,2.41,0,0,0,1.21,2.1L61.38,83.36l.09,0a1.86,1.86,0,0,0,.41.17l.14,0a2.07,2.07,0,0,0,1.14,0l.14,0a3.07,3.07,0,0,0,.42-.17l.09,0L84.19,71.53a2.43,2.43,0,0,0,1.21-2.1Zm-22.81-9,15.56,9-15.56,9-15.68-9ZM44.48,50.1l15.69,9V77.07L44.48,68ZM65,77.06V59.14l15.55-9V68Z"/><path class="cls-2" d="M22.67,40.63V27.94a2.42,2.42,0,0,1,2.42-2.42H37.78a2.43,2.43,0,1,1,0,4.85H27.52V40.63a2.43,2.43,0,1,1-4.85,0Z"/><path class="cls-2" d="M102.37,27.94V40.63a2.43,2.43,0,1,1-4.85,0V30.37H87.25a2.43,2.43,0,0,1,0-4.85H99.94A2.42,2.42,0,0,1,102.37,27.94Z"/><path class="cls-2" d="M102.37,74.71V87.4a2.42,2.42,0,0,1-2.43,2.42H87.25a2.43,2.43,0,0,1,0-4.85H97.52V74.71a2.43,2.43,0,1,1,4.85,0Z"/><path class="cls-2" d="M40.21,87.4a2.42,2.42,0,0,1-2.43,2.42H25.09a2.42,2.42,0,0,1-2.42-2.42V74.71a2.43,2.43,0,1,1,4.85,0V85H37.78A2.43,2.43,0,0,1,40.21,87.4Z"/></g></g></svg>