<svg xmlns="http://www.w3.org/2000/svg" viewBox="0 0 107.7 107.7"><defs><style>.cls-1{fill:#4b267f;}.cls-2{fill:#e83d61;}.cls-3,.cls-4{fill:none;stroke-linecap:round;stroke-linejoin:round;stroke-width:5px;}.cls-3{stroke:#e73c61;}.cls-4{stroke:#4b267f;}</style></defs><g id="Layer_2" data-name="Layer 2"><g id="Layer_1-2" data-name="Layer 1"><path class="cls-1" d="M82.48,17.55H74.7V9.12a2,2,0,0,0-1.94-1.95h-1.3a2,2,0,0,0-1.94,1.95v8.43H38.39V9.12a2,2,0,0,0-1.94-1.95h-1.3A2,2,0,0,0,33.2,9.12v8.43H25.42a7.78,7.78,0,0,0-7.78,7.78V82.39a7.78,7.78,0,0,0,7.78,7.78H82.48a7.78,7.78,0,0,0,7.79-7.78V25.33A7.78,7.78,0,0,0,82.48,17.55Zm2.6,64.84A2.6,2.6,0,0,1,82.48,85H25.42a2.6,2.6,0,0,1-2.59-2.59V38.3H85.08Zm0-49.28H22.83V25.33a2.61,2.61,0,0,1,2.59-2.6H82.48a2.61,2.61,0,0,1,2.6,2.6Z"/><rect class="cls-2" x="33.2" y="48.67" width="10.38" height="10.38" rx="1.95"/><rect class="cls-1" x="33.2" y="64.23" width="10.38" height="10.38" rx="1.95"/><rect class="cls-1" x="48.77" y="48.67" width="10.38" height="10.38" rx="1.95"/><rect class="cls-2" x="48.77" y="64.23" width="10.38" height="10.38" rx="1.95"/><rect class="cls-2" x="64.33" y="48.67" width="10.38" height="10.38" rx="1.95"/><rect class="cls-1" x="64.33" y="64.23" width="10.38" height="10.38" rx="1.95"/><path class="cls-3" d="M19.63,105.2A17.13,17.13,0,0,1,2.5,88.07"/><path class="cls-4" d="M105.2,88.07A17.13,17.13,0,0,1,88.07,105.2"/><path class="cls-3" d="M88.07,2.5A17.13,17.13,0,0,1,105.2,19.63"/><path class="cls-4" d="M2.5,19.63A17.13,17.13,0,0,1,19.63,2.5"/><line class="cls-3" x1="105.2" y1="36.83" x2="105.2" y2="29.39"/><line class="cls-3" x1="2.5" y1="78.33" x2="2.5" y2="70.89"/></g></g></svg>