<svg xmlns="http://www.w3.org/2000/svg" xmlns:xlink="http://www.w3.org/1999/xlink" viewBox="0 0 42.75 42.26"><defs><style>.cls-1,.cls-2{fill-rule:evenodd;}.cls-1{fill:url(#Linear_Gradient_1);}.cls-2{fill:url(#Linear_Gradient_1-2);}</style><linearGradient id="Linear_Gradient_1" x1="10.44" y1="11.5" x2="27.5" y2="29.71" gradientUnits="userSpaceOnUse"><stop offset="0" stop-color="#e8365c"/><stop offset="1" stop-color="#7a579e"/></linearGradient><linearGradient id="Linear_Gradient_1-2" x1="10.84" y1="11.17" x2="36.43" y2="35.18" xlink:href="#Linear_Gradient_1"/></defs><g id="Layer_2" data-name="Layer 2"><g id="Layer_1-2" data-name="Layer 1"><path class="cls-1" d="M18.58,7.33a12.57,12.57,0,0,0-11,10.47h0A12.19,12.19,0,0,0,9.88,27h0a.52.52,0,0,0,.78.05h0l2.69-2.66a.49.49,0,0,0,.06-.62h0A7.43,7.43,0,0,1,12.35,18h0a7.79,7.79,0,0,1,6.3-5.91h0a7.76,7.76,0,0,1,8.92,9.24h0A7.72,7.72,0,0,1,23,26.75h0a7.65,7.65,0,0,1-5.85.07h0s-.09,0-.05,0h0a7.57,7.57,0,0,1-1.69-.95h0a.5.5,0,0,0-.66,0h0l-3.08,3L10.46,30.1a1.16,1.16,0,0,0,0,1.65h0a1.2,1.2,0,0,0,1.67,0h0l1.43-1.42a12.69,12.69,0,0,0,9.35,1.4h0A12.41,12.41,0,0,0,32.27,22h0A12.46,12.46,0,0,0,20,7.26h0C19.5,7.26,19,7.29,18.58,7.33Z"/><path class="cls-2" d="M29,.68h0a2.29,2.29,0,0,0,.38,3.58h0A17.91,17.91,0,0,1,37.85,22.2h0A18.13,18.13,0,0,1,22.46,37.42h0A18.27,18.27,0,0,1,4.31,29h0a2.34,2.34,0,0,0-3.62-.38h0a2.32,2.32,0,0,0-.33,2.89h0A23,23,0,0,0,22.17,42.15h0A22.9,22.9,0,0,0,42.63,21.91h0A22.54,22.54,0,0,0,31.89.35h0A2.4,2.4,0,0,0,30.63,0h0A2.38,2.38,0,0,0,29,.68Z"/></g></g></svg>