<svg xmlns="http://www.w3.org/2000/svg" xmlns:xlink="http://www.w3.org/1999/xlink" viewBox="0 0 367.25 100.4"><defs><style>.cls-1{isolation:isolate;}.cls-2{fill:#4a267f;}.cls-3{fill:url(#linear-gradient);}.cls-4{fill:url(#linear-gradient-2);}.cls-5{opacity:0.6;mix-blend-mode:soft-light;}.cls-6,.cls-7{mix-blend-mode:multiply;}.cls-6{fill:url(#linear-gradient-3);}.cls-7{fill:url(#linear-gradient-4);}</style><linearGradient id="linear-gradient" x1="274.14" y1="7.92" x2="360.18" y2="93.95" gradientUnits="userSpaceOnUse"><stop offset="0" stop-color="#e63c61"/><stop offset="0.14" stop-color="#e23d64"/><stop offset="0.29" stop-color="#d5406b"/><stop offset="0.44" stop-color="#bf4677"/><stop offset="0.6" stop-color="#a14d89"/><stop offset="0.76" stop-color="#7b569e"/><stop offset="1" stop-color="#4a267e"/></linearGradient><linearGradient id="linear-gradient-2" x1="267.66" y1="6.06" x2="338.88" y2="77.29" xlink:href="#linear-gradient"/><linearGradient id="linear-gradient-3" x1="316.37" y1="69.08" x2="367.25" y2="69.08" xlink:href="#linear-gradient"/><linearGradient id="linear-gradient-4" x1="316.04" y1="58.63" x2="342.37" y2="58.63" xlink:href="#linear-gradient"/></defs><g class="cls-1"><g id="Layer_2" data-name="Layer 2"><g id="Layer_1-2" data-name="Layer 1"><path class="cls-2" d="M43.8,73.55a3.07,3.07,0,0,1-3-3V38.24L25.87,58.65a2.91,2.91,0,0,1-2.42,1.21A3.11,3.11,0,0,1,21,58.65L6.06,38.24V70.52a3,3,0,0,1-3,3,3.07,3.07,0,0,1-3-3V29a3.06,3.06,0,0,1,5.51-1.82L23.45,51.74,41.38,27.15A3,3,0,0,1,46.83,29V70.52A3,3,0,0,1,43.8,73.55Z"/><path class="cls-2" d="M57,73.8a3,3,0,0,1-2.72-4.37L74.48,27.88a3.12,3.12,0,0,1,2.73-1.7,3,3,0,0,1,2.72,1.7l20.3,41.5A3,3,0,0,1,94.78,72l-4.73-9.75A21.6,21.6,0,0,0,80,61.92a36.41,36.41,0,0,0-10.36,3.7A54.31,54.31,0,0,0,59.09,73,3,3,0,0,1,57,73.8ZM77.21,36.12,65,61.26c.55-.31,1.09-.61,1.7-.91A41.73,41.73,0,0,1,78.84,56a29,29,0,0,1,7.88-.43Z"/><path class="cls-2" d="M137.15,73.8H110.73a3,3,0,0,1-3-3V29.21a3,3,0,0,1,3-3,3,3,0,0,1,3,3V67.74h23.39a3,3,0,1,1,0,6.06Z"/><path class="cls-2" d="M168.51,74.89a25.25,25.25,0,0,1-17.63-7.33,24.81,24.81,0,0,1-5.33-7.82,24,24,0,0,1-1.94-9.57,24.61,24.61,0,0,1,1.94-9.57,25,25,0,0,1,5.39-7.82,25.15,25.15,0,0,1,17.69-7.27A24.3,24.3,0,0,1,182.75,30a3,3,0,0,1,.73,4.24,3.08,3.08,0,0,1-4.24.72,17.86,17.86,0,0,0-10.61-3.39,19.28,19.28,0,0,0-13.38,5.51A19.05,19.05,0,0,0,151.13,43a18.18,18.18,0,0,0-1.46,7.15,18,18,0,0,0,1.46,7.15,18.21,18.21,0,0,0,4.06,5.94,18.74,18.74,0,0,0,13.32,5.57,18.24,18.24,0,0,0,7.64-1.64,18.92,18.92,0,0,0,5.27-3.63V51a3,3,0,1,1,6.05,0V64.83a3.09,3.09,0,0,1-.78,2,25.16,25.16,0,0,1-8.06,5.88A24.17,24.17,0,0,1,168.51,74.89Z"/><path class="cls-2" d="M197.68,73.8A3,3,0,0,1,195,69.43l20.17-41.55a3.12,3.12,0,0,1,2.73-1.7,3,3,0,0,1,2.73,1.7l20.29,41.5a3,3,0,0,1-1.39,4A3,3,0,0,1,235.42,72l-4.73-9.75a21.56,21.56,0,0,0-10.05-.37,36.31,36.31,0,0,0-10.36,3.7A53.93,53.93,0,0,0,199.74,73,3,3,0,0,1,197.68,73.8Zm20.17-37.68L205.67,61.26c.55-.31,1.1-.61,1.7-.91A41.68,41.68,0,0,1,219.49,56a28.92,28.92,0,0,1,7.87-.43Z"/><path class="cls-3" d="M341.44.84a5.68,5.68,0,0,0-6.95.78h0a5.43,5.43,0,0,0,.91,8.51,42.59,42.59,0,0,1,20.22,42.6,43.39,43.39,0,0,1-79.68,16.19,5.57,5.57,0,0,0-9.4,6,54.56,54.56,0,0,0,51.82,25.24c25.42-2.5,46.09-22.93,48.61-48.06A53.55,53.55,0,0,0,341.44.84Z"/><path class="cls-4" d="M290.89,64l6.34-6.27a1.15,1.15,0,0,0,.14-1.48,17.59,17.59,0,0,1-2.5-13.7,18.37,18.37,0,1,1,25,20.7,18.06,18.06,0,0,1-13.79.16s-.2.1-.11,0a17.72,17.72,0,0,1-4-2.24,1.19,1.19,0,0,0-1.56.09l-7.24,7.16-2.78,2.75a2.73,2.73,0,0,0,0,3.88,2.81,2.81,0,0,0,3.93,0l3.39-3.35a29.79,29.79,0,0,0,22,3.3,29.24,29.24,0,0,0-10.22-57.5,29.59,29.59,0,0,0-26,24.67,28.7,28.7,0,0,0,5.52,21.75A1.22,1.22,0,0,0,290.89,64Z"/><g class="cls-5"><path class="cls-6" d="M355.26,38.38A42.67,42.67,0,0,1,319,88.9c-.89.13-1.78.21-2.67.28A43.12,43.12,0,0,0,319.86,100C344.59,96.81,364.5,76.71,367,52.07A54,54,0,0,0,366.7,39a43.18,43.18,0,0,0-7.94-.74C357.58,38.22,356.41,38.28,355.26,38.38Z"/><path class="cls-7" d="M330.77,50.42A18.19,18.19,0,0,1,319.9,63.28l-.35.13A42.91,42.91,0,0,0,316,75.63a33.57,33.57,0,0,0,3.74-.63,29.26,29.26,0,0,0,22.07-22.83,29.68,29.68,0,0,0,.1-10.54,43.31,43.31,0,0,0-10.87,6.66C331,49,330.91,49.71,330.77,50.42Z"/></g></g></g></g></svg>